<svg width="417" height="417" viewBox="0 0 417 417" fill="none" xmlns="http://www.w3.org/2000/svg">
<g clip-path="url(#clip0_50_33)">
<path d="M18.3705 221C17.8905 221 17.4638 220.853 17.0905 220.56C16.7171 220.267 16.4505 219.867 16.2905 219.36L8.25047 192.64C7.9838 191.76 7.99714 191.067 8.29047 190.56C8.61047 190.027 9.11714 189.76 9.81047 189.76C10.2638 189.76 10.6771 189.893 11.0505 190.16C11.4238 190.4 11.6905 190.787 11.8505 191.32L18.8505 215.72H17.9705L24.4505 191.56C24.5571 191.16 24.7971 190.827 25.1705 190.56C25.5438 190.293 25.9705 190.16 26.4505 190.16C26.8771 190.16 27.2771 190.28 27.6505 190.52C28.0505 190.733 28.3038 191.067 28.4105 191.52L34.9305 215.72H34.1305L41.1705 191.12C41.4371 190.213 42.1171 189.76 43.2105 189.76C43.9571 189.76 44.4371 190.053 44.6505 190.64C44.8638 191.2 44.8638 191.867 44.6505 192.64L36.6105 219.32C36.4238 219.827 36.1438 220.24 35.7705 220.56C35.4238 220.853 35.0105 221 34.5305 221C34.0238 221 33.5838 220.84 33.2105 220.52C32.8638 220.2 32.6105 219.813 32.4505 219.36L26.0105 194.48H26.9705L20.4505 219.32C20.2638 219.827 19.9838 220.24 19.6105 220.56C19.2638 220.853 18.8505 221 18.3705 221Z" fill="black" fill-opacity="0.7"/>
<path d="M209.15 403.4C207.444 403.4 205.817 403.133 204.27 402.6C202.724 402.067 201.377 401.32 200.23 400.36C199.084 399.4 198.244 398.293 197.71 397.04C197.444 396.48 197.444 395.96 197.71 395.48C198.004 395 198.484 394.693 199.15 394.56C199.63 394.453 200.097 394.533 200.55 394.8C201.03 395.04 201.39 395.413 201.63 395.92C201.95 396.587 202.47 397.2 203.19 397.76C203.937 398.32 204.83 398.773 205.87 399.12C206.91 399.467 208.004 399.64 209.15 399.64C210.43 399.64 211.604 399.44 212.67 399.04C213.764 398.64 214.644 398.067 215.31 397.32C215.977 396.547 216.31 395.6 216.31 394.48C216.31 393.067 215.75 391.8 214.63 390.68C213.537 389.56 211.724 388.867 209.19 388.6C205.884 388.28 203.284 387.307 201.39 385.68C199.497 384.053 198.55 382.04 198.55 379.64C198.55 377.88 199.044 376.387 200.03 375.16C201.017 373.933 202.35 373 204.03 372.36C205.737 371.72 207.63 371.4 209.71 371.4C211.337 371.4 212.75 371.627 213.95 372.08C215.177 372.533 216.244 373.16 217.15 373.96C218.057 374.76 218.844 375.707 219.51 376.8C219.884 377.387 220.03 377.947 219.95 378.48C219.897 378.987 219.644 379.387 219.19 379.68C218.684 380 218.137 380.067 217.55 379.88C216.964 379.693 216.524 379.347 216.23 378.84C215.804 378.067 215.284 377.413 214.67 376.88C214.057 376.347 213.337 375.933 212.51 375.64C211.684 375.32 210.71 375.16 209.59 375.16C207.617 375.133 205.964 375.507 204.63 376.28C203.297 377.027 202.63 378.187 202.63 379.76C202.63 380.56 202.83 381.333 203.23 382.08C203.657 382.8 204.417 383.427 205.51 383.96C206.63 384.493 208.23 384.867 210.31 385.08C213.484 385.4 215.95 386.373 217.71 388C219.497 389.6 220.39 391.72 220.39 394.36C220.39 395.88 220.07 397.2 219.43 398.32C218.817 399.44 217.977 400.387 216.91 401.16C215.87 401.907 214.67 402.467 213.31 402.84C211.977 403.213 210.59 403.4 209.15 403.4Z" fill="black" fill-opacity="0.7"/>
<path d="M382.576 221C381.989 221 381.496 220.8 381.096 220.4C380.696 220 380.496 219.507 380.496 218.92V191.84C380.496 191.227 380.696 190.733 381.096 190.36C381.496 189.96 381.989 189.76 382.576 189.76H400.656C401.269 189.76 401.763 189.947 402.136 190.32C402.509 190.667 402.696 191.133 402.696 191.72C402.696 192.28 402.509 192.733 402.136 193.08C401.763 193.427 401.269 193.6 400.656 193.6H384.656V203.32H396.136C396.749 203.32 397.243 203.507 397.616 203.88C397.989 204.227 398.176 204.68 398.176 205.24C398.176 205.8 397.989 206.267 397.616 206.64C397.243 206.987 396.749 207.16 396.136 207.16H384.656V217.16H400.656C401.269 217.16 401.763 217.333 402.136 217.68C402.509 218.027 402.696 218.48 402.696 219.04C402.696 219.627 402.509 220.107 402.136 220.48C401.763 220.827 401.269 221 400.656 221H382.576Z" fill="black" fill-opacity="0.7"/>
<path d="M198.438 39C197.852 39 197.358 38.8 196.958 38.4C196.585 38 196.398 37.5067 196.398 36.92V9.84C196.398 9.22667 196.585 8.73333 196.958 8.36C197.358 7.96 197.852 7.76 198.438 7.76C199.078 7.76 199.612 8.01333 200.038 8.52L217.478 31.72V9.84C217.478 9.22667 217.678 8.73333 218.078 8.36C218.478 7.96 218.972 7.76 219.558 7.76C220.172 7.76 220.665 7.96 221.038 8.36C221.412 8.73333 221.598 9.22667 221.598 9.84V36.92C221.598 37.5067 221.412 38 221.038 38.4C220.665 38.8 220.172 39 219.558 39C219.292 39 218.998 38.9467 218.678 38.84C218.385 38.7067 218.145 38.52 217.958 38.28L200.518 15.08V36.92C200.518 37.5067 200.318 38 199.918 38.4C199.545 38.8 199.052 39 198.438 39Z" fill="black" fill-opacity="0.7"/>
<path d="M388.07 236.748C382.265 274.409 364.722 309.278 337.941 336.386C311.16 363.495 276.507 381.46 238.918 387.722" stroke="black" stroke-opacity="0.7" stroke-linecap="round" stroke-dasharray="1 6"/>
<path d="M388.07 173.769C382.265 136.107 364.722 101.238 337.941 74.1301C311.16 47.0217 276.507 29.0566 238.918 22.7941" stroke="black" stroke-opacity="0.7" stroke-linecap="round" stroke-dasharray="1 6"/>
<path d="M30.8393 236.748C36.6447 274.409 54.1877 309.278 80.9688 336.386C107.75 363.495 142.403 381.46 179.991 387.722" stroke="black" stroke-opacity="0.7" stroke-linecap="round" stroke-dasharray="1 6"/>
<path d="M30.8393 173.769C36.6447 136.107 54.1877 101.238 80.9688 74.1301C107.75 47.0217 142.403 29.0566 179.991 22.7941" stroke="black" stroke-opacity="0.7" stroke-linecap="round" stroke-dasharray="1 6"/>
</g>
<defs>
<clipPath id="clip0_50_33">
<rect width="417" height="417" fill="white"/>
</clipPath>
</defs>
</svg>
