<svg width="130" height="130" viewBox="0 0 130 130" fill="none" xmlns="http://www.w3.org/2000/svg">
<rect width="130" height="130" fill="white"/>
<g filter="url(#filter0_ddi_215_168)">
<circle cx="66.5" cy="64" r="32" fill="url(#paint0_linear_215_168)"/>
</g>
<path d="M111 93.5C112.381 93.5 113.5 94.6193 113.5 96C113.5 97.3807 112.381 98.5 111 98.5H30C28.6193 98.5 27.5 97.3807 27.5 96C27.5 94.6193 28.6193 93.5 30 93.5H111ZM76.5 84.5C77.8807 84.5 79 85.6193 79 87C79 88.3807 77.8807 89.5 76.5 89.5H18.5C17.1193 89.5 16 88.3807 16 87C16 85.6193 17.1193 84.5 18.5 84.5H76.5ZM106 84.5C107.381 84.5 108.5 85.6193 108.5 87C108.5 88.3807 107.381 89.5 106 89.5H88C86.6193 89.5 85.5 88.3807 85.5 87C85.5 85.6193 86.6193 84.5 88 84.5H106ZM92.5 75.5C93.8807 75.5 95 76.6193 95 78C95 79.3807 93.8807 80.5 92.5 80.5H40.5C39.1193 80.5 38 79.3807 38 78C38 76.6193 39.1193 75.5 40.5 75.5H92.5ZM115.5 75C116.881 75 118 76.1193 118 77.5C118 78.8807 116.881 80 115.5 80H102.5C101.119 80 100 78.8807 100 77.5C100 76.1193 101.119 75 102.5 75H115.5Z" fill="url(#paint1_linear_215_168)"/>
<path fill-rule="evenodd" clip-rule="evenodd" d="M41.6769 45.677C41.6769 43.6462 40.0307 42 37.9999 42C35.9692 42 34.3229 43.6462 34.3229 45.677V52.123L29.7648 47.565C28.3289 46.129 26.0007 46.129 24.5648 47.565C23.1288 49.001 23.1288 51.3291 24.5648 52.765L29.1227 57.323H22.677C20.6462 57.323 19 58.9693 19 61C19 63.0308 20.6462 64.677 22.677 64.677H29.1228L24.5648 69.235C23.1289 70.6709 23.1289 72.9991 24.5648 74.435C26.0008 75.871 28.329 75.871 29.7649 74.435L34.3229 69.877V76.323C34.3229 78.3538 35.9692 80 37.9999 80C40.0307 80 41.6769 78.3538 41.6769 76.323V69.8772L46.2348 74.435C47.6708 75.871 49.9989 75.871 51.4349 74.435C52.8708 72.9991 52.8708 70.6709 51.4349 69.235L46.8769 64.677H53.323C55.3538 64.677 57 63.0308 57 61C57 58.9693 55.3538 57.323 53.323 57.323H46.877L51.4349 52.765C52.8709 51.3291 52.8709 49.001 51.4349 47.565C49.9989 46.129 47.6708 46.129 46.2349 47.565L41.6769 52.1229V45.677Z" fill="url(#paint2_linear_215_168)"/>
<defs>
<filter id="filter0_ddi_215_168" x="18.5" y="16" width="96" height="96" filterUnits="userSpaceOnUse" color-interpolation-filters="sRGB">
<feFlood flood-opacity="0" result="BackgroundImageFix"/>
<feColorMatrix in="SourceAlpha" type="matrix" values="0 0 0 0 0 0 0 0 0 0 0 0 0 0 0 0 0 0 127 0" result="hardAlpha"/>
<feOffset/>
<feGaussianBlur stdDeviation="8"/>
<feComposite in2="hardAlpha" operator="out"/>
<feColorMatrix type="matrix" values="0 0 0 0 0.992157 0 0 0 0 0.773882 0 0 0 0 0 0 0 0 1 0"/>
<feBlend mode="normal" in2="BackgroundImageFix" result="effect1_dropShadow_215_168"/>
<feColorMatrix in="SourceAlpha" type="matrix" values="0 0 0 0 0 0 0 0 0 0 0 0 0 0 0 0 0 0 127 0" result="hardAlpha"/>
<feOffset/>
<feGaussianBlur stdDeviation="5.5"/>
<feComposite in2="hardAlpha" operator="out"/>
<feColorMatrix type="matrix" values="0 0 0 0 0.992157 0 0 0 0 0.772549 0 0 0 0 0 0 0 0 0.45 0"/>
<feBlend mode="normal" in2="effect1_dropShadow_215_168" result="effect2_dropShadow_215_168"/>
<feBlend mode="normal" in="SourceGraphic" in2="effect2_dropShadow_215_168" result="shape"/>
<feColorMatrix in="SourceAlpha" type="matrix" values="0 0 0 0 0 0 0 0 0 0 0 0 0 0 0 0 0 0 127 0" result="hardAlpha"/>
<feOffset dx="-1" dy="3"/>
<feGaussianBlur stdDeviation="2.5"/>
<feComposite in2="hardAlpha" operator="arithmetic" k2="-1" k3="1"/>
<feColorMatrix type="matrix" values="0 0 0 0 1 0 0 0 0 0.9 0 0 0 0 0 0 0 0 0.35 0"/>
<feBlend mode="normal" in2="shape" result="effect3_innerShadow_215_168"/>
</filter>
<linearGradient id="paint0_linear_215_168" x1="66.5" y1="32" x2="66.5" y2="96" gradientUnits="userSpaceOnUse">
<stop stop-color="#FDC500"/>
<stop offset="1" stop-color="#FD8900"/>
</linearGradient>
<linearGradient id="paint1_linear_215_168" x1="68.8889" y1="106.867" x2="75.2535" y2="69.5603" gradientUnits="userSpaceOnUse">
<stop stop-color="#92D1FF"/>
<stop offset="0.299998" stop-color="#97D3FF" stop-opacity="0.75"/>
<stop offset="1" stop-color="#6CA1C6" stop-opacity="0"/>
</linearGradient>
<linearGradient id="paint2_linear_215_168" x1="24.4246" y1="72.3096" x2="60.5152" y2="41.8478" gradientUnits="userSpaceOnUse">
<stop stop-color="#0056D6"/>
<stop offset="1" stop-color="#ADD8FF"/>
</linearGradient>
</defs>
</svg>
