<svg width="130" height="130" viewBox="0 0 130 130" fill="none" xmlns="http://www.w3.org/2000/svg">
<g clip-path="url(#clip0_219_421)">
<g filter="url(#filter0_ddi_219_421)">
<circle cx="66" cy="64" r="32" fill="url(#paint0_linear_219_421)"/>
</g>
<path fill-rule="evenodd" clip-rule="evenodd" d="M98 89.5C98 88.1193 99.1193 87 100.5 87H113.5C114.881 87 116 88.1193 116 89.5C116 90.8807 114.881 92 113.5 92H100.5C99.1193 92 98 90.8807 98 89.5ZM36 90C36 88.6193 37.1193 87.5 38.5 87.5L90.5 87.5C91.8807 87.5 93 88.6193 93 90C93 91.3807 91.8807 92.5 90.5 92.5H38.5C37.1193 92.5 36 91.3807 36 90ZM28 105.5C26.6193 105.5 25.5 106.619 25.5 108C25.5 109.381 26.6193 110.5 28 110.5H109C110.381 110.5 111.5 109.381 111.5 108C111.5 106.619 110.381 105.5 109 105.5H28ZM83.5 99C83.5 97.6193 84.6193 96.5 86 96.5H104C105.381 96.5 106.5 97.6193 106.5 99C106.5 100.381 105.381 101.5 104 101.5H86C84.6193 101.5 83.5 100.381 83.5 99ZM16.5 96.5C15.1193 96.5 14 97.6193 14 99C14 100.381 15.1193 101.5 16.5 101.5H74.5C75.8807 101.5 77 100.381 77 99C77 97.6193 75.8807 96.5 74.5 96.5H16.5Z" fill="url(#paint1_linear_219_421)"/>
<path fill-rule="evenodd" clip-rule="evenodd" d="M32 77.5C32 76.1193 30.8807 75 29.5 75H16.5C15.119 75 14 76.1193 14 77.5C14 78.8807 15.119 80 16.5 80H29.5C30.8807 80 32 78.8807 32 77.5ZM94 78C94 76.6193 92.8807 75.5 91.5 75.5L39.5 75.5C38.1193 75.5 37 76.6193 37 78C37 79.3807 38.1193 80.5 39.5 80.5H91.5C92.8807 80.5 94 79.3807 94 78ZM102 93.5C103.381 93.5 104.5 94.6193 104.5 96C104.5 97.3807 103.381 98.5 102 98.5H21C19.6193 98.5 18.5 97.3807 18.5 96C18.5 94.6193 19.6193 93.5 21 93.5H102ZM46.5 87C46.5 85.6193 45.3807 84.5 44 84.5H26C24.6193 84.5 23.5 85.6193 23.5 87C23.5 88.3807 24.6193 89.5 26 89.5H44C45.3807 89.5 46.5 88.3807 46.5 87ZM113.5 84.5C114.881 84.5 116 85.6193 116 87C116 88.3807 114.881 89.5 113.5 89.5H55.5C54.1193 89.5 53 88.3807 53 87C53 85.6193 54.1193 84.5 55.5 84.5H113.5Z" fill="url(#paint2_linear_219_421)"/>
</g>
<defs>
<filter id="filter0_ddi_219_421" x="18" y="16" width="96" height="96" filterUnits="userSpaceOnUse" color-interpolation-filters="sRGB">
<feFlood flood-opacity="0" result="BackgroundImageFix"/>
<feColorMatrix in="SourceAlpha" type="matrix" values="0 0 0 0 0 0 0 0 0 0 0 0 0 0 0 0 0 0 127 0" result="hardAlpha"/>
<feOffset/>
<feGaussianBlur stdDeviation="8"/>
<feComposite in2="hardAlpha" operator="out"/>
<feColorMatrix type="matrix" values="0 0 0 0 0.992157 0 0 0 0 0.773882 0 0 0 0 0 0 0 0 1 0"/>
<feBlend mode="normal" in2="BackgroundImageFix" result="effect1_dropShadow_219_421"/>
<feColorMatrix in="SourceAlpha" type="matrix" values="0 0 0 0 0 0 0 0 0 0 0 0 0 0 0 0 0 0 127 0" result="hardAlpha"/>
<feOffset/>
<feGaussianBlur stdDeviation="5.5"/>
<feComposite in2="hardAlpha" operator="out"/>
<feColorMatrix type="matrix" values="0 0 0 0 0.992157 0 0 0 0 0.772549 0 0 0 0 0 0 0 0 0.45 0"/>
<feBlend mode="normal" in2="effect1_dropShadow_219_421" result="effect2_dropShadow_219_421"/>
<feBlend mode="normal" in="SourceGraphic" in2="effect2_dropShadow_219_421" result="shape"/>
<feColorMatrix in="SourceAlpha" type="matrix" values="0 0 0 0 0 0 0 0 0 0 0 0 0 0 0 0 0 0 127 0" result="hardAlpha"/>
<feOffset dx="-1" dy="3"/>
<feGaussianBlur stdDeviation="2.5"/>
<feComposite in2="hardAlpha" operator="arithmetic" k2="-1" k3="1"/>
<feColorMatrix type="matrix" values="0 0 0 0 1 0 0 0 0 0.9 0 0 0 0 0 0 0 0 0.35 0"/>
<feBlend mode="normal" in2="shape" result="effect3_innerShadow_219_421"/>
</filter>
<linearGradient id="paint0_linear_219_421" x1="66" y1="32" x2="66" y2="96" gradientUnits="userSpaceOnUse">
<stop stop-color="#FDC500"/>
<stop offset="1" stop-color="#FD8900"/>
</linearGradient>
<linearGradient id="paint1_linear_219_421" x1="66.8889" y1="118.867" x2="73.2535" y2="81.5603" gradientUnits="userSpaceOnUse">
<stop stop-color="#DFDFDF"/>
<stop offset="1" stop-color="#92AABB" stop-opacity="0"/>
</linearGradient>
<linearGradient id="paint2_linear_219_421" x1="63.1111" y1="106.867" x2="56.7465" y2="69.5603" gradientUnits="userSpaceOnUse">
<stop stop-color="#DFDFDF"/>
<stop offset="1" stop-color="#92AABB" stop-opacity="0"/>
</linearGradient>
<clipPath id="clip0_219_421">
<rect width="130" height="130" fill="white"/>
</clipPath>
</defs>
</svg>
