<svg width="130" height="130" viewBox="0 0 130 130" fill="none" xmlns="http://www.w3.org/2000/svg">
<rect width="130" height="130" fill="white"/>
<path fill-rule="evenodd" clip-rule="evenodd" d="M28.4834 35.4835C28.4834 33.5596 26.9238 32 24.9999 32C23.076 32 21.5165 33.5596 21.5165 35.4835V41.5902L17.1983 37.2721C15.8379 35.9117 13.6323 35.9117 12.2719 37.2721C10.9115 38.6325 10.9115 40.8381 12.2719 42.1984L16.59 46.5166H10.4835C8.55959 46.5166 7 48.0762 7 50C7 51.9239 8.55959 53.4835 10.4835 53.4835H16.59L12.272 57.8016C10.9116 59.1619 10.9116 61.3676 12.272 62.7279C13.6323 64.0883 15.838 64.0883 17.1983 62.7279L21.5165 58.4098V64.5166C21.5165 66.4404 23.076 68 24.9999 68C26.9238 68 28.4834 66.4404 28.4834 64.5166V58.41L32.8014 62.7279C34.1618 64.0883 36.3674 64.0883 37.7278 62.7279C39.0881 61.3676 39.0881 59.1619 37.7278 57.8016L33.4097 53.4835H39.5165C41.4404 53.4835 43 51.9239 43 50C43 48.0762 41.4404 46.5166 39.5165 46.5166H33.4098L37.7278 42.1984C39.0882 40.8381 39.0882 38.6325 37.7278 37.2721C36.3674 35.9117 34.1618 35.9117 32.8015 37.2721L28.4834 41.5901V35.4835Z" fill="url(#paint0_linear_215_168)"/>
<g filter="url(#filter0_i_215_168)">
<path fill-rule="evenodd" clip-rule="evenodd" d="M88 55C88 55.7882 87.9696 56.5693 87.9099 57.3422C91.1949 54.6296 95.4071 53 100 53C110.493 53 119 61.5066 119 72C119 82.158 111.029 90.4541 101 90.9741V91H100H30H28V90.896C18.4467 89.8966 11 81.8179 11 72C11 62.1618 18.4775 54.07 28.0593 53.0979C29.0405 37.4156 42.0704 25 58 25C74.5685 25 88 38.4315 88 55Z" fill="url(#paint1_linear_215_168)"/>
</g>
<path d="M58.8078 79.9058L49.3151 90.9182C48.2652 92.1104 47.5157 93.5274 47.1254 95.0584C46.7351 96.5894 46.7145 98.1928 47.0653 99.7431C47.3547 100.966 47.9806 102.093 48.875 103.002C49.7695 103.911 50.8983 104.567 52.1393 104.9C53.3803 105.233 54.6861 105.229 55.9152 104.889C57.1443 104.548 58.2499 103.885 59.1121 102.971C60.191 101.804 60.9748 100.405 61.4023 98.8839C61.8298 97.3629 61.8893 95.7609 61.5761 94.2035L58.8078 79.9058Z" fill="url(#paint2_linear_215_168)"/>
<path fill-rule="evenodd" clip-rule="evenodd" d="M60.9558 91H49.2438C49.2674 90.9726 49.2912 90.9453 49.3151 90.9182L58.8078 79.9058L60.9558 91ZM47.5945 61.9788L53.7304 56.3669L54.5186 64.6592C54.6165 65.5554 54.4947 66.4525 54.1627 67.2789C53.8307 68.1053 53.2979 68.838 52.6068 69.4185C52.0511 69.8744 51.3699 70.172 50.6363 70.2794C49.9026 70.3867 49.1441 70.2999 48.442 70.0281C47.7399 69.7563 47.1207 69.3098 46.6505 68.7365C46.1804 68.1631 45.8772 67.4844 45.7733 66.7732C45.6509 65.8776 45.7523 64.9756 46.069 64.1419C46.3856 63.3082 46.9086 62.5667 47.5945 61.9788ZM71.6354 69.7742L79.683 60.6435L82.1329 72.587C82.4162 73.8757 82.3798 75.2004 82.0265 76.4552C81.6732 77.71 81.0129 78.86 80.0984 79.8133C79.3613 80.5641 78.4168 81.1041 77.3661 81.3757C76.3153 81.6472 75.1979 81.64 74.1334 81.3548C73.069 81.0696 72.0976 80.5171 71.3234 79.7566C70.5492 78.996 70.0013 78.0561 69.7384 77.0373C69.4196 75.7532 69.4254 74.4247 69.7552 73.1617C70.0851 71.8987 70.7296 70.7375 71.6354 69.7742Z" fill="url(#paint3_linear_215_168)"/>
<defs>
<filter id="filter0_i_215_168" x="4" y="18" width="122" height="80" filterUnits="userSpaceOnUse" color-interpolation-filters="sRGB">
<feFlood flood-opacity="0" result="BackgroundImageFix"/>
<feBlend mode="normal" in="SourceGraphic" in2="BackgroundImageFix" result="shape"/>
<feColorMatrix in="SourceAlpha" type="matrix" values="0 0 0 0 0 0 0 0 0 0 0 0 0 0 0 0 0 0 127 0" result="hardAlpha"/>
<feOffset dy="2"/>
<feGaussianBlur stdDeviation="4"/>
<feComposite in2="hardAlpha" operator="arithmetic" k2="-1" k3="1"/>
<feColorMatrix type="matrix" values="0 0 0 0 1 0 0 0 0 1 0 0 0 0 1 0 0 0 0.25 0"/>
<feBlend mode="normal" in2="shape" result="effect1_innerShadow_215_168"/>
</filter>
<linearGradient id="paint0_linear_215_168" x1="12.1391" y1="60.7143" x2="46.3302" y2="31.8558" gradientUnits="userSpaceOnUse">
<stop stop-color="#0056D6"/>
<stop offset="1" stop-color="#ADD8FF"/>
</linearGradient>
<linearGradient id="paint1_linear_215_168" x1="67" y1="114.5" x2="107.5" y2="25" gradientUnits="userSpaceOnUse">
<stop stop-color="#DFDFDF"/>
<stop offset="1" stop-color="#92AABB" stop-opacity="0"/>
</linearGradient>
<linearGradient id="paint2_linear_215_168" x1="54.5723" y1="114.134" x2="74.6893" y2="98.0347" gradientUnits="userSpaceOnUse">
<stop stop-color="#92D1FF"/>
<stop offset="0.299998" stop-color="#97D3FF" stop-opacity="0.75"/>
<stop offset="1" stop-color="#6CA1C6" stop-opacity="0"/>
</linearGradient>
<linearGradient id="paint3_linear_215_168" x1="64.6999" y1="103.332" x2="91.291" y2="65.3828" gradientUnits="userSpaceOnUse">
<stop stop-color="#92D1FF"/>
<stop offset="0.299998" stop-color="#97D3FF" stop-opacity="0.75"/>
<stop offset="1" stop-color="#6CA1C6" stop-opacity="0"/>
</linearGradient>
</defs>
</svg>
