<svg width="130" height="130" viewBox="0 0 130 130" fill="none" xmlns="http://www.w3.org/2000/svg">
<path d="M77.9356 81.4888C74.85 81.6668 71.7604 81.2152 68.8563 80.1618C65.9522 79.1084 63.2949 77.4754 61.0471 75.363C58.7993 73.2505 57.0086 70.7031 55.7846 67.877C54.5607 65.0509 53.9293 62.0056 53.9293 58.9278C53.9293 55.8501 54.5607 52.8048 55.7846 49.9786C57.0086 47.1525 58.7993 44.6051 61.0471 42.4926C63.2949 40.3802 65.9522 38.7472 68.8563 37.6938C71.7604 36.6404 74.85 36.1889 77.9356 36.3668C79.8843 36.3523 81.8255 36.6066 83.7041 37.1226C78.077 33.0893 71.3063 30.9452 64.3733 31.0011C57.4403 31.0569 50.7053 33.3099 45.1445 37.4334C39.5837 41.5568 35.4861 47.3366 33.4456 53.9348C31.405 60.533 31.5276 67.6069 33.7955 74.1311C36.0634 80.6553 40.3589 86.2908 46.0592 90.2208C51.7596 94.1508 58.5686 96.171 65.4994 95.9887C72.4302 95.8063 79.1226 93.4309 84.6066 89.2067C90.0906 84.9825 94.0812 79.129 96 72.4947C93.9029 75.2938 91.1768 77.5652 88.0399 79.127C84.9031 80.6888 81.4427 81.4977 77.9356 81.4888Z" fill="url(#paint0_linear_219_753)"/>
<path d="M101 66C101 62.5522 99.8411 59.2456 97.7782 56.8076C95.7153 54.3696 92.9174 53 90 53C92.9174 53 95.7153 51.6304 97.7782 49.1924C99.8411 46.7544 101 43.4478 101 40C101 41.7072 101.285 43.3976 101.837 44.9749C102.39 46.5521 103.2 47.9852 104.222 49.1924C105.243 50.3996 106.456 51.3571 107.79 52.0104C109.125 52.6637 110.555 53 112 53C110.555 53 109.125 53.3363 107.79 53.9896C106.456 54.6429 105.243 55.6005 104.222 56.8076C103.2 58.0148 102.39 59.4479 101.837 61.0251C101.285 62.6023 101 64.2928 101 66Z" fill="url(#paint1_linear_219_753)"/>
<path d="M19 99C19 95.5522 17.8411 92.2456 15.7782 89.8076C13.7153 87.3696 10.9174 86 8 86C10.9174 86 13.7153 84.6304 15.7782 82.1924C17.8411 79.7544 19 76.4478 19 73C19 74.7072 19.2845 76.3976 19.8373 77.9749C20.3901 79.5521 21.2004 80.9852 22.2218 82.1924C23.2433 83.3996 24.4559 84.3571 25.7905 85.0104C27.1251 85.6637 28.5555 86 30 86C28.5555 86 27.1251 86.3363 25.7905 86.9896C24.4559 87.6429 23.2433 88.6005 22.2218 89.8076C21.2004 91.0148 20.3901 92.4479 19.8373 94.0251C19.2845 95.6023 19 97.2928 19 99Z" fill="url(#paint2_linear_219_753)"/>
<defs>
<linearGradient id="paint0_linear_219_753" x1="64" y1="31" x2="64" y2="96" gradientUnits="userSpaceOnUse">
<stop stop-color="#FDC500"/>
<stop offset="1" stop-color="#FD8900"/>
</linearGradient>
<linearGradient id="paint1_linear_219_753" x1="101" y1="40" x2="101" y2="66" gradientUnits="userSpaceOnUse">
<stop stop-color="#FDC500"/>
<stop offset="1" stop-color="#FD8900"/>
</linearGradient>
<linearGradient id="paint2_linear_219_753" x1="19" y1="73" x2="19" y2="99" gradientUnits="userSpaceOnUse">
<stop stop-color="#FDC500"/>
<stop offset="1" stop-color="#FD8900"/>
</linearGradient>
</defs>
</svg>
