<svg width="130" height="130" viewBox="0 0 130 130" fill="none" xmlns="http://www.w3.org/2000/svg">
<rect width="130" height="130" fill="white"/>
<path d="M82.9356 81.4888C79.85 81.6668 76.7604 81.2152 73.8563 80.1618C70.9522 79.1084 68.2949 77.4754 66.0471 75.363C63.7993 73.2505 62.0086 70.7031 60.7846 67.877C59.5607 65.0509 58.9293 62.0056 58.9293 58.9278C58.9293 55.8501 59.5607 52.8048 60.7846 49.9786C62.0086 47.1525 63.7993 44.6051 66.0471 42.4926C68.2949 40.3802 70.9522 38.7472 73.8563 37.6938C76.7604 36.6404 79.85 36.1889 82.9356 36.3668C84.8843 36.3523 86.8255 36.6066 88.7041 37.1226C83.077 33.0893 76.3063 30.9452 69.3733 31.0011C62.4403 31.0569 55.7053 33.3099 50.1445 37.4334C44.5837 41.5568 40.4861 47.3366 38.4456 53.9348C36.405 60.533 36.5276 67.6069 38.7955 74.1311C41.0634 80.6553 45.3589 86.2908 51.0592 90.2208C56.7596 94.1508 63.5686 96.171 70.4994 95.9887C77.4302 95.8063 84.1226 93.4309 89.6066 89.2067C95.0906 84.9825 99.0812 79.129 101 72.4947C98.9029 75.2938 96.1768 77.5652 93.0399 79.127C89.9031 80.6889 86.4427 81.4977 82.9356 81.4888Z" fill="url(#paint0_linear_215_168)"/>
<path d="M106 66C106 62.5522 104.841 59.2456 102.778 56.8076C100.715 54.3696 97.9174 53 95 53C97.9174 53 100.715 51.6304 102.778 49.1924C104.841 46.7544 106 43.4478 106 40C106 41.7072 106.285 43.3976 106.837 44.9749C107.39 46.5521 108.2 47.9852 109.222 49.1924C110.243 50.3996 111.456 51.3571 112.79 52.0104C114.125 52.6637 115.555 53 117 53C115.555 53 114.125 53.3363 112.79 53.9896C111.456 54.6429 110.243 55.6005 109.222 56.8076C108.2 58.0148 107.39 59.4479 106.837 61.0251C106.285 62.6024 106 64.2928 106 66Z" fill="url(#paint1_linear_215_168)"/>
<path d="M24 99C24 95.5522 22.8411 92.2456 20.7782 89.8076C18.7153 87.3696 15.9174 86 13 86C15.9174 86 18.7153 84.6304 20.7782 82.1924C22.8411 79.7544 24 76.4478 24 73C24 74.7072 24.2845 76.3976 24.8373 77.9749C25.3901 79.5521 26.2004 80.9852 27.2218 82.1924C28.2433 83.3996 29.4559 84.3571 30.7905 85.0104C32.1251 85.6637 33.5555 86 35 86C33.5555 86 32.1251 86.3363 30.7905 86.9896C29.4559 87.6429 28.2433 88.6005 27.2218 89.8076C26.2004 91.0148 25.3901 92.4479 24.8373 94.0251C24.2845 95.6024 24 97.2928 24 99Z" fill="url(#paint2_linear_215_168)"/>
<defs>
<linearGradient id="paint0_linear_215_168" x1="69" y1="31" x2="69" y2="96" gradientUnits="userSpaceOnUse">
<stop stop-color="#FDC500"/>
<stop offset="1" stop-color="#FD8900"/>
</linearGradient>
<linearGradient id="paint1_linear_215_168" x1="106" y1="40" x2="106" y2="66" gradientUnits="userSpaceOnUse">
<stop stop-color="#FDC500"/>
<stop offset="1" stop-color="#FD8900"/>
</linearGradient>
<linearGradient id="paint2_linear_215_168" x1="24" y1="73" x2="24" y2="99" gradientUnits="userSpaceOnUse">
<stop stop-color="#FDC500"/>
<stop offset="1" stop-color="#FD8900"/>
</linearGradient>
</defs>
</svg>
