<svg width="130" height="130" viewBox="0 0 130 130" fill="none" xmlns="http://www.w3.org/2000/svg">
<rect width="130" height="130" fill="white"/>
<g clip-path="url(#clip0_215_168)">
<path d="M85.9356 81.4888C82.85 81.6668 79.7604 81.2152 76.8563 80.1618C73.9522 79.1084 71.2949 77.4754 69.0471 75.363C66.7993 73.2505 65.0086 70.7031 63.7846 67.877C62.5607 65.0509 61.9293 62.0056 61.9293 58.9278C61.9293 55.8501 62.5607 52.8048 63.7846 49.9786C65.0086 47.1525 66.7993 44.6051 69.0471 42.4926C71.2949 40.3802 73.9522 38.7472 76.8563 37.6938C79.7604 36.6404 82.85 36.1889 85.9356 36.3668C87.8843 36.3522 89.8255 36.6066 91.7041 37.1226C86.077 33.0893 79.3063 30.9452 72.3733 31.0011C65.4403 31.0569 58.7053 33.3099 53.1445 37.4334C47.5837 41.5568 43.4861 47.3366 41.4456 53.9348C39.405 60.533 39.5276 67.6069 41.7955 74.1311C44.0634 80.6553 48.3589 86.2908 54.0592 90.2208C59.7596 94.1508 66.5686 96.171 73.4994 95.9887C80.4302 95.8063 87.1226 93.4309 92.6066 89.2067C98.0906 84.9825 102.081 79.129 104 72.4947C101.903 75.2938 99.1768 77.5652 96.0399 79.127C92.9031 80.6889 89.4427 81.4977 85.9356 81.4888Z" fill="url(#paint0_linear_215_168)"/>
</g>
<path fill-rule="evenodd" clip-rule="evenodd" d="M42.9357 46.189C42.9357 44.2922 41.398 42.7545 39.5013 42.7545C37.6044 42.7545 36.0668 44.2922 36.0668 46.189V52.2098L31.8094 47.9524C30.4682 46.6112 28.2936 46.6112 26.9523 47.9524C25.6111 49.2937 25.6111 51.4682 26.9523 52.8094L31.2096 57.0668H25.1891C23.2923 57.0668 21.7546 58.6044 21.7546 60.5012C21.7546 62.398 23.2923 63.9357 25.1891 63.9357H31.2097L26.9524 68.193C25.6112 69.5342 25.6112 71.7088 26.9524 73.05C28.2936 74.3912 30.4682 74.3912 31.8094 73.05L36.0668 68.7926V74.8135C36.0668 76.7102 37.6044 78.2479 39.5013 78.2479C41.398 78.2479 42.9357 76.7102 42.9357 74.8135V68.7928L47.1929 73.05C48.5341 74.3912 50.7087 74.3912 52.05 73.05C53.3912 71.7088 53.3912 69.5342 52.05 68.193L47.7927 63.9357H53.8135C55.7103 63.9357 57.248 62.398 57.248 60.5012C57.248 58.6044 55.7103 57.0668 53.8135 57.0668H47.7927L52.05 52.8094C53.3912 51.4682 53.3912 49.2937 52.05 47.9524C50.7087 46.6112 48.5342 46.6112 47.193 47.9524L42.9357 52.2097V46.189Z" fill="url(#paint1_linear_215_168)"/>
<g clip-path="url(#clip1_215_168)">
<path fill-rule="evenodd" clip-rule="evenodd" d="M103 77.5C103 76.1193 104.119 75 105.5 75H118.5C119.881 75 121 76.1193 121 77.5C121 78.8807 119.881 80 118.5 80H105.5C104.119 80 103 78.8807 103 77.5ZM41 78C41 76.6193 42.1193 75.5 43.5 75.5L95.5 75.5C96.8807 75.5 98 76.6193 98 78C98 79.3807 96.8807 80.5 95.5 80.5H43.5C42.1193 80.5 41 79.3807 41 78ZM33 93.5C31.6193 93.5 30.5 94.6193 30.5 96C30.5 97.3807 31.6193 98.5 33 98.5H114C115.381 98.5 116.5 97.3807 116.5 96C116.5 94.6193 115.381 93.5 114 93.5H33ZM88.5 87C88.5 85.6193 89.6193 84.5 91 84.5H109C110.381 84.5 111.5 85.6193 111.5 87C111.5 88.3807 110.381 89.5 109 89.5H91C89.6193 89.5 88.5 88.3807 88.5 87ZM21.5 84.5C20.1193 84.5 19 85.6193 19 87C19 88.3807 20.1193 89.5 21.5 89.5H79.5C80.8807 89.5 82 88.3807 82 87C82 85.6193 80.8807 84.5 79.5 84.5H21.5Z" fill="url(#paint2_linear_215_168)"/>
</g>
<defs>
<linearGradient id="paint0_linear_215_168" x1="72" y1="31" x2="72" y2="96" gradientUnits="userSpaceOnUse">
<stop stop-color="#FDC500"/>
<stop offset="1" stop-color="#FD8900"/>
</linearGradient>
<linearGradient id="paint1_linear_215_168" x1="26.8214" y1="71.0647" x2="60.5313" y2="42.6123" gradientUnits="userSpaceOnUse">
<stop stop-color="#0056D6"/>
<stop offset="1" stop-color="#ADD8FF"/>
</linearGradient>
<linearGradient id="paint2_linear_215_168" x1="71.8889" y1="106.867" x2="78.2535" y2="69.5603" gradientUnits="userSpaceOnUse">
<stop stop-color="#92D1FF"/>
<stop offset="0.299998" stop-color="#97D3FF" stop-opacity="0.75"/>
<stop offset="1" stop-color="#6CA1C6" stop-opacity="0"/>
</linearGradient>
<clipPath id="clip0_215_168">
<rect width="64" height="65" fill="white" transform="translate(40 31)"/>
</clipPath>
<clipPath id="clip1_215_168">
<rect width="102" height="24" fill="white" transform="translate(19 75)"/>
</clipPath>
</defs>
</svg>
