<svg width="130" height="130" viewBox="0 0 130 130" fill="none" xmlns="http://www.w3.org/2000/svg">
<rect width="130" height="130" fill="white"/>
<g clip-path="url(#clip0_215_168)">
<path d="M80.9356 81.4888C77.85 81.6668 74.7604 81.2152 71.8563 80.1618C68.9522 79.1084 66.2949 77.4754 64.0471 75.363C61.7993 73.2505 60.0086 70.7031 58.7846 67.877C57.5607 65.0509 56.9293 62.0056 56.9293 58.9278C56.9293 55.8501 57.5607 52.8048 58.7846 49.9786C60.0086 47.1525 61.7993 44.6051 64.0471 42.4926C66.2949 40.3802 68.9522 38.7472 71.8563 37.6938C74.7604 36.6404 77.85 36.1889 80.9356 36.3668C82.8843 36.3522 84.8255 36.6066 86.7041 37.1226C81.077 33.0893 74.3063 30.9452 67.3733 31.0011C60.4403 31.0569 53.7053 33.3099 48.1445 37.4334C42.5837 41.5568 38.4861 47.3366 36.4456 53.9348C34.405 60.533 34.5276 67.6069 36.7955 74.1311C39.0634 80.6553 43.3589 86.2908 49.0592 90.2208C54.7596 94.1508 61.5686 96.171 68.4994 95.9887C75.4302 95.8063 82.1226 93.4309 87.6066 89.2067C93.0906 84.9825 97.0812 79.129 99 72.4947C96.9029 75.2938 94.1768 77.5652 91.0399 79.127C87.9031 80.6889 84.4427 81.4977 80.9356 81.4888Z" fill="url(#paint0_linear_215_168)"/>
</g>
<g clip-path="url(#clip1_215_168)">
<path fill-rule="evenodd" clip-rule="evenodd" d="M98 77.5C98 76.1193 99.1193 75 100.5 75H113.5C114.881 75 116 76.1193 116 77.5C116 78.8807 114.881 80 113.5 80H100.5C99.1193 80 98 78.8807 98 77.5ZM36 78C36 76.6193 37.1193 75.5 38.5 75.5L90.5 75.5C91.8807 75.5 93 76.6193 93 78C93 79.3807 91.8807 80.5 90.5 80.5H38.5C37.1193 80.5 36 79.3807 36 78ZM28 93.5C26.6193 93.5 25.5 94.6193 25.5 96C25.5 97.3807 26.6193 98.5 28 98.5H109C110.381 98.5 111.5 97.3807 111.5 96C111.5 94.6193 110.381 93.5 109 93.5H28ZM83.5 87C83.5 85.6193 84.6193 84.5 86 84.5H104C105.381 84.5 106.5 85.6193 106.5 87C106.5 88.3807 105.381 89.5 104 89.5H86C84.6193 89.5 83.5 88.3807 83.5 87ZM16.5 84.5C15.1193 84.5 14 85.6193 14 87C14 88.3807 15.1193 89.5 16.5 89.5H74.5C75.8807 89.5 77 88.3807 77 87C77 85.6193 75.8807 84.5 74.5 84.5H16.5Z" fill="url(#paint1_linear_215_168)"/>
</g>
<defs>
<linearGradient id="paint0_linear_215_168" x1="67" y1="31" x2="67" y2="96" gradientUnits="userSpaceOnUse">
<stop stop-color="#FDC500"/>
<stop offset="1" stop-color="#FD8900"/>
</linearGradient>
<linearGradient id="paint1_linear_215_168" x1="66.8889" y1="106.867" x2="73.2535" y2="69.5603" gradientUnits="userSpaceOnUse">
<stop stop-color="#DFDFDF"/>
<stop offset="1" stop-color="#92AABB" stop-opacity="0"/>
</linearGradient>
<clipPath id="clip0_215_168">
<rect width="64" height="65" fill="white" transform="translate(35 31)"/>
</clipPath>
<clipPath id="clip1_215_168">
<rect width="102" height="24" fill="white" transform="translate(14 75)"/>
</clipPath>
</defs>
</svg>
