<svg width="130" height="130" viewBox="0 0 130 130" fill="none" xmlns="http://www.w3.org/2000/svg">
<g clip-path="url(#clip0_220_812)">
<g clip-path="url(#clip1_220_812)">
<path d="M78.9356 82.4888C75.85 82.6668 72.7604 82.2152 69.8563 81.1618C66.9522 80.1084 64.2949 78.4754 62.0471 76.363C59.7993 74.2505 58.0086 71.7031 56.7846 68.877C55.5607 66.0509 54.9293 63.0056 54.9293 59.9278C54.9293 56.8501 55.5607 53.8048 56.7846 50.9786C58.0086 48.1525 59.7993 45.6051 62.0471 43.4926C64.2949 41.3802 66.9522 39.7472 69.8563 38.6938C72.7604 37.6404 75.85 37.1889 78.9356 37.3668C80.8843 37.3522 82.8255 37.6066 84.7041 38.1226C79.077 34.0893 72.3063 31.9452 65.3733 32.0011C58.4403 32.0569 51.7053 34.3099 46.1445 38.4334C40.5837 42.5568 36.4861 48.3366 34.4456 54.9348C32.405 61.533 32.5276 68.6069 34.7955 75.1311C37.0634 81.6553 41.3589 87.2908 47.0592 91.2208C52.7596 95.1508 59.5686 97.171 66.4994 96.9887C73.4302 96.8063 80.1226 94.4309 85.6066 90.2067C91.0906 85.9825 95.0812 80.129 97 73.4947C94.9029 76.2938 92.1768 78.5652 89.0399 80.127C85.9031 81.6889 82.4427 82.4977 78.9356 82.4888Z" fill="url(#paint0_linear_220_812)"/>
</g>
<path fill-rule="evenodd" clip-rule="evenodd" d="M98 89.5C98 88.1193 99.1193 87 100.5 87H113.5C114.881 87 116 88.1193 116 89.5C116 90.8807 114.881 92 113.5 92H100.5C99.1193 92 98 90.8807 98 89.5ZM36 90C36 88.6193 37.1193 87.5 38.5 87.5L90.5 87.5C91.8807 87.5 93 88.6193 93 90C93 91.3807 91.8807 92.5 90.5 92.5H38.5C37.1193 92.5 36 91.3807 36 90ZM28 105.5C26.6193 105.5 25.5 106.619 25.5 108C25.5 109.381 26.6193 110.5 28 110.5H109C110.381 110.5 111.5 109.381 111.5 108C111.5 106.619 110.381 105.5 109 105.5H28ZM83.5 99C83.5 97.6193 84.6193 96.5 86 96.5H104C105.381 96.5 106.5 97.6193 106.5 99C106.5 100.381 105.381 101.5 104 101.5H86C84.6193 101.5 83.5 100.381 83.5 99ZM16.5 96.5C15.1193 96.5 14 97.6193 14 99C14 100.381 15.1193 101.5 16.5 101.5H74.5C75.8807 101.5 77 100.381 77 99C77 97.6193 75.8807 96.5 74.5 96.5H16.5Z" fill="url(#paint1_linear_220_812)"/>
<path fill-rule="evenodd" clip-rule="evenodd" d="M32 77.5C32 76.1193 30.8807 75 29.5 75H16.5C15.119 75 14 76.1193 14 77.5C14 78.8807 15.119 80 16.5 80H29.5C30.8807 80 32 78.8807 32 77.5ZM94 78C94 76.6193 92.8807 75.5 91.5 75.5L39.5 75.5C38.1193 75.5 37 76.6193 37 78C37 79.3807 38.1193 80.5 39.5 80.5H91.5C92.8807 80.5 94 79.3807 94 78ZM102 93.5C103.381 93.5 104.5 94.6193 104.5 96C104.5 97.3807 103.381 98.5 102 98.5H21C19.6193 98.5 18.5 97.3807 18.5 96C18.5 94.6193 19.6193 93.5 21 93.5H102ZM46.5 87C46.5 85.6193 45.3807 84.5 44 84.5H26C24.6193 84.5 23.5 85.6193 23.5 87C23.5 88.3807 24.6193 89.5 26 89.5H44C45.3807 89.5 46.5 88.3807 46.5 87ZM113.5 84.5C114.881 84.5 116 85.6193 116 87C116 88.3807 114.881 89.5 113.5 89.5H55.5C54.1193 89.5 53 88.3807 53 87C53 85.6193 54.1193 84.5 55.5 84.5H113.5Z" fill="url(#paint2_linear_220_812)"/>
<path fill-rule="evenodd" clip-rule="evenodd" d="M52.9514 104.451C52.9514 103.65 52.3016 103 51.5 103C50.6984 103 50.0485 103.65 50.0485 104.451V106.996L48.2493 105.197C47.6825 104.63 46.7634 104.63 46.1966 105.197C45.6298 105.764 45.6298 106.683 46.1966 107.249L47.9958 109.049H45.4515C44.6498 109.049 44 109.698 44 110.5C44 111.302 44.6498 111.951 45.4515 111.951H47.9958L46.1966 113.751C45.6298 114.317 45.6298 115.236 46.1966 115.803C46.7635 116.37 47.6825 116.37 48.2493 115.803L50.0485 114.004V116.549C50.0485 117.35 50.6984 118 51.5 118C52.3016 118 52.9514 117.35 52.9514 116.549V114.004L54.7506 115.803C55.3174 116.37 56.2364 116.37 56.8032 115.803C57.3701 115.236 57.3701 114.317 56.8032 113.751L55.004 111.951H57.5485C58.3502 111.951 59 111.302 59 110.5C59 109.698 58.3502 109.049 57.5485 109.049H55.0041L56.8033 107.249C57.3701 106.683 57.3701 105.764 56.8033 105.197C56.2364 104.63 55.3174 104.63 54.7506 105.197L52.9514 106.996V104.451Z" fill="url(#paint3_linear_220_812)"/>
<path fill-rule="evenodd" clip-rule="evenodd" d="M110.161 94.1612C110.161 93.5199 109.641 93 109 93C108.359 93 107.839 93.5199 107.839 94.1612V96.1967L106.399 94.7574C105.946 94.3039 105.211 94.3039 104.757 94.7574C104.304 95.2108 104.304 95.946 104.757 96.3995L106.197 97.8389H104.161C103.52 97.8389 103 98.3587 103 99C103 99.6413 103.52 100.161 104.161 100.161H106.197L104.757 101.601C104.304 102.054 104.304 102.789 104.757 103.243C105.211 103.696 105.946 103.696 106.399 103.243L107.839 101.803V103.839C107.839 104.48 108.359 105 109 105C109.641 105 110.161 104.48 110.161 103.839V101.803L111.6 103.243C112.054 103.696 112.789 103.696 113.243 103.243C113.696 102.789 113.696 102.054 113.243 101.601L111.803 100.161H113.839C114.48 100.161 115 99.6413 115 99C115 98.3587 114.48 97.8389 113.839 97.8389H111.803L113.243 96.3995C113.696 95.946 113.696 95.2108 113.243 94.7574C112.789 94.3039 112.054 94.3039 111.6 94.7574L110.161 96.1967V94.1612Z" fill="url(#paint4_linear_220_812)"/>
<path fill-rule="evenodd" clip-rule="evenodd" d="M15.9676 99.9676C15.9676 99.4332 15.5344 99 15 99C14.4656 99 14.0323 99.4332 14.0323 99.9676V101.664L12.8329 100.464C12.455 100.087 11.8423 100.087 11.4644 100.464C11.0865 100.842 11.0865 101.455 11.4644 101.833L12.6639 103.032H10.9676C10.4332 103.032 10 103.466 10 104C10 104.534 10.4332 104.968 10.9676 104.968H12.6639L11.4644 106.167C11.0866 106.545 11.0866 107.158 11.4644 107.536C11.8423 107.913 12.455 107.913 12.8329 107.536L14.0323 106.336V108.032C14.0323 108.567 14.4656 109 15 109C15.5344 109 15.9676 108.567 15.9676 108.032V106.336L17.1671 107.536C17.5449 107.913 18.1576 107.913 18.5355 107.536C18.9134 107.158 18.9134 106.545 18.5355 106.167L17.336 104.968H19.0324C19.5668 104.968 20 104.534 20 104C20 103.466 19.5668 103.032 19.0324 103.032H17.336L18.5355 101.833C18.9134 101.455 18.9134 100.842 18.5355 100.464C18.1576 100.087 17.5449 100.087 17.1671 100.464L15.9676 101.664V99.9676Z" fill="url(#paint5_linear_220_812)"/>
</g>
<defs>
<linearGradient id="paint0_linear_220_812" x1="65" y1="32" x2="65" y2="97" gradientUnits="userSpaceOnUse">
<stop stop-color="#FDC500"/>
<stop offset="1" stop-color="#FD8900"/>
</linearGradient>
<linearGradient id="paint1_linear_220_812" x1="66.8889" y1="118.867" x2="73.2535" y2="81.5603" gradientUnits="userSpaceOnUse">
<stop stop-color="#DFDFDF"/>
<stop offset="1" stop-color="#92AABB" stop-opacity="0"/>
</linearGradient>
<linearGradient id="paint2_linear_220_812" x1="63.1111" y1="106.867" x2="56.7465" y2="69.5603" gradientUnits="userSpaceOnUse">
<stop stop-color="#DFDFDF"/>
<stop offset="1" stop-color="#92AABB" stop-opacity="0"/>
</linearGradient>
<linearGradient id="paint3_linear_220_812" x1="46.1413" y1="114.964" x2="60.3876" y2="102.94" gradientUnits="userSpaceOnUse">
<stop stop-color="#0056D6"/>
<stop offset="1" stop-color="#ADD8FF"/>
</linearGradient>
<linearGradient id="paint4_linear_220_812" x1="104.713" y1="102.571" x2="116.11" y2="92.9519" gradientUnits="userSpaceOnUse">
<stop stop-color="#0056D6"/>
<stop offset="1" stop-color="#ADD8FF"/>
</linearGradient>
<linearGradient id="paint5_linear_220_812" x1="11.4275" y1="106.976" x2="20.925" y2="98.9599" gradientUnits="userSpaceOnUse">
<stop stop-color="#0056D6"/>
<stop offset="1" stop-color="#ADD8FF"/>
</linearGradient>
<clipPath id="clip0_220_812">
<rect width="130" height="130" fill="white"/>
</clipPath>
<clipPath id="clip1_220_812">
<rect width="64" height="65" fill="white" transform="translate(33 32)"/>
</clipPath>
</defs>
</svg>
